<svg xmlns="http://www.w3.org/2000/svg" width="179.072" height="190" viewBox="0 0 179.072 190">
  <g id="Group_381" data-name="Group 381" transform="translate(-3581.649 -1736.462)">
    <g id="Group_32" data-name="Group 32" transform="translate(3667.372 1869.18)">
      <rect id="Rectangle_1376" data-name="Rectangle 1376" width="26.584" height="55.693" transform="translate(0 0)" fill="#49263e"/>
    </g>
    <g id="Group_33" data-name="Group 33" transform="translate(3599.668 1806.567)">
      <path id="Path_534" data-name="Path 534" d="M796.942,976.086V899.793a6.563,6.563,0,0,0-6.563-6.563H642.453a6.564,6.564,0,0,0-6.563,6.563v76.292Z" transform="translate(-635.89 -893.23)" fill="#49263e"/>
    </g>
    <g id="Group_34" data-name="Group 34" transform="translate(3599.668 1889.422)">
      <path id="Path_535" data-name="Path 535" d="M635.89,1546.79v12.226c0,2.543,1.681,4.6,3.754,4.6H793.187c2.074,0,3.754-2.061,3.754-4.6V1546.79Z" transform="translate(-635.89 -1546.79)" fill="#3a1f33"/>
    </g>
    <g id="Group_36" data-name="Group 36" transform="translate(3603.439 1809.879)">
      <g id="Group_35" data-name="Group 35" transform="translate(0 0)">
        <path id="Path_536" data-name="Path 536" d="M819.142,995.59V922.815a3.519,3.519,0,0,0-3.579-3.455H669.209a3.518,3.518,0,0,0-3.579,3.455V995.59Z" transform="translate(-665.63 -919.36)" fill="#e8f2fc"/>
      </g>
    </g>
    <g id="Group_37" data-name="Group 37" transform="translate(3643.116 1921.697)">
      <path id="Path_537" data-name="Path 537" d="M1052.106,1806.135a3.91,3.91,0,0,0-3.949-4.766H984.183a5.9,5.9,0,0,0-5.583,4.766h73.506Z" transform="translate(-978.6 -1801.37)" fill="#3a1f33"/>
    </g>
    <g id="Group_38" data-name="Group 38" transform="translate(3599.477 1806.374)">
      <path id="Path_538" data-name="Path 538" d="M791.87,991.781H638.327c-2.177,0-3.947-2.151-3.947-4.8V898.466a6.764,6.764,0,0,1,6.756-6.756v.385a6.378,6.378,0,0,0-6.37,6.372v88.519c0,2.433,1.6,4.412,3.562,4.412H791.871v.383Z" transform="translate(-634.38 -891.71)" fill="#21111d"/>
    </g>
    <g id="Group_39" data-name="Group 39" transform="translate(3750.172 1892.62)">
      <rect id="Rectangle_1377" data-name="Rectangle 1377" width="6.283" height="0.385" transform="matrix(0.583, -0.813, 0.813, 0.583, 0, 5.105)" fill="#21111d"/>
    </g>
    <g id="Group_40" data-name="Group 40" transform="translate(3750.167 1895.16)">
      <rect id="Rectangle_1378" data-name="Rectangle 1378" width="6.171" height="0.385" transform="matrix(0.594, -0.805, 0.805, 0.594, 0, 4.966)" fill="#21111d"/>
    </g>
    <g id="Group_41" data-name="Group 41" transform="translate(3673.593 1907.364)">
      <rect id="Rectangle_1379" data-name="Rectangle 1379" width="3.675" height="0.384" transform="translate(0 3.191) rotate(-60.251)" fill="#21111d"/>
    </g>
    <g id="Group_42" data-name="Group 42" transform="translate(3673.893 1909.569)">
      <rect id="Rectangle_1380" data-name="Rectangle 1380" width="3.259" height="0.384" transform="matrix(0.506, -0.863, 0.863, 0.506, 0, 2.811)" fill="#21111d"/>
    </g>
    <g id="Group_43" data-name="Group 43" transform="translate(3675.011 1799.846)">
      <path id="Path_539" data-name="Path 539" d="M1230.19,846.472s1.231-4.6,2.357-5.084a2.867,2.867,0,0,1,2.38.324s1.2-1.643,2.023-1.486a1.323,1.323,0,0,1,1.019.89s1.45.153,1.6,1.345c0,0,1.14.276,1.126,1.212,0,0,.588.266.55,1.4,0,0-1.957,3.826-4.833,5.181S1230.19,846.472,1230.19,846.472Z" transform="translate(-1230.19 -840.216)" fill="#fe9f73"/>
    </g>
    <g id="Group_44" data-name="Group 44" transform="translate(3630.766 1849.356)">
      <path id="Path_540" data-name="Path 540" d="M899.352,1267.5l.342-32.57-.733-4.183-17.771,6.378s.548,13.768,1.7,30.375Z" transform="translate(-881.19 -1230.75)" fill="#3aa1c9"/>
    </g>
    <g id="Group_45" data-name="Group 45" transform="translate(3617.633 1846.368)">
      <path id="Path_541" data-name="Path 541" d="M795.24,1246.922l2-22.974,3.377-16.767-22.976,9.774s-.165,13.527.115,29.967Z" transform="translate(-777.59 -1207.18)" fill="#4cb7d8"/>
    </g>
    <g id="Group_46" data-name="Group 46" transform="translate(3670.087 1782.975)">
      <path id="Path_542" data-name="Path 542" d="M1191.35,707.14l18.691,31.136-1.556,1.183-14.8-27.441Z" transform="translate(-1191.35 -707.14)" fill="#683d46"/>
    </g>
    <g id="Group_47" data-name="Group 47" transform="translate(3678.987 1800.126)">
      <path id="Path_543" data-name="Path 543" d="M1262.174,843.548a7.556,7.556,0,0,1,1.324-1.108c.5-.255,3.453,5.186,3.453,5.186l.428,1.344s-.379.711-.624.682a4.29,4.29,0,0,1-.986-.595l-.193-.742-.3-.084-.389-.359-.193-.588-.415.186-.589-.233-.271-.549-.117-.053-1.755-2.821Z" transform="translate(-1261.55 -842.432)" fill="#fe9f73"/>
    </g>
    <g id="Group_48" data-name="Group 48" transform="translate(3677.507 1800.716)">
      <path id="Path_544" data-name="Path 544" d="M1253.056,850.8a1.966,1.966,0,0,1-.874-.368,4.661,4.661,0,0,0-.677-.358,1.535,1.535,0,0,0-1.008-.152.1.1,0,0,1-.125-.053.1.1,0,0,1,.051-.124,1.647,1.647,0,0,1,1.154.151,4.91,4.91,0,0,1,.7.371c.488.293.8.46,1.007.231a.913.913,0,0,0,.241-.721,3.388,3.388,0,0,0-1.472-1.99,2.077,2.077,0,0,0-2.047-.4.1.1,0,0,1-.079-.175,2.266,2.266,0,0,1,2.243.418,3.521,3.521,0,0,1,1.547,2.126,1.1,1.1,0,0,1-.289.867A.486.486,0,0,1,1253.056,850.8Z" transform="translate(-1249.874 -847.084)" fill="#f07162"/>
    </g>
    <g id="Group_49" data-name="Group 49" transform="translate(3680.918 1800.65)">
      <path id="Path_545" data-name="Path 545" d="M1276.879,848.708a.1.1,0,0,1-.065-.025.1.1,0,0,1-.006-.136l1.776-1.952a.1.1,0,1,1,.142.129l-1.776,1.952A.092.092,0,0,1,1276.879,848.708Z" transform="translate(-1276.783 -846.563)" fill="#f07162"/>
    </g>
    <g id="Group_50" data-name="Group 50" transform="translate(3682.111 1803.209)">
      <path id="Path_546" data-name="Path 546" d="M1287.042,869.624a.6.6,0,0,1-.383-.134.928.928,0,0,1-.443-.986.1.1,0,0,1,.189.042.747.747,0,0,0,.362.786.437.437,0,0,0,.378.091c.953-.181,2.354-2.6,2.368-2.627a.1.1,0,0,1,.167.1c-.06.1-1.46,2.523-2.5,2.721A1.078,1.078,0,0,1,1287.042,869.624Z" transform="translate(-1286.195 -866.747)" fill="#f07162"/>
    </g>
    <g id="Group_51" data-name="Group 51" transform="translate(3680.749 1801.996)">
      <path id="Path_547" data-name="Path 547" d="M1276.367,860.422a.848.848,0,0,1-.544-.18,1.17,1.17,0,0,1-.377-.749.1.1,0,1,1,.191-.016.992.992,0,0,0,.306.616.719.719,0,0,0,.565.127c.7-.1,2.036-2.192,2.491-2.992a.1.1,0,0,1,.131-.036.1.1,0,0,1,.036.132c-.069.12-1.7,2.959-2.633,3.088A1.472,1.472,0,0,1,1276.367,860.422Z" transform="translate(-1275.446 -857.179)" fill="#f07162"/>
    </g>
    <g id="Group_52" data-name="Group 52" transform="translate(3673.175 1804.172)">
      <path id="Path_548" data-name="Path 548" d="M1215.71,875.211l.693-.871s6.16,1.732,8.39,6.783l-.976,1.315S1219.314,876.816,1215.71,875.211Z" transform="translate(-1215.71 -874.34)" fill="#e2f2f1"/>
    </g>
    <g id="Group_53" data-name="Group 53" transform="translate(3606.982 1804.012)">
      <path id="Path_549" data-name="Path 549" d="M737.787,927.236l.113-.147-.591-33.144s10.9,7.311,14.168,7.452,16.775-19.909,16.775-19.909a12.465,12.465,0,0,0-8.84-7.439l-11.154,12.227-13.068-11.855c-1.742-1.057-15.137-1.287-15.137-1.287s-15.246-.347-16.988.711-8.152,18.482-9.147,26.385,0,13.021,6.036,13.954l2.2.047.169,13.006s12.164,2.737,35.468,0Z" transform="translate(-693.583 -873.08)" fill="#ef3a4c"/>
    </g>
    <g id="Group_56" data-name="Group 56" transform="translate(3631.246 1826.12)">
      <g id="Group_54" data-name="Group 54" transform="translate(0 0.778)">
        <path id="Path_550" data-name="Path 550" d="M899.723,1074.192H886.488a1.518,1.518,0,0,1-1.518-1.517v-17.547a1.518,1.518,0,0,1,1.518-1.517h13.235a1.518,1.518,0,0,1,1.518,1.517v17.547A1.519,1.519,0,0,1,899.723,1074.192Z" transform="translate(-884.97 -1053.61)" fill="#49263e"/>
      </g>
      <g id="Group_55" data-name="Group 55" transform="translate(3.907 0)">
        <path id="Path_551" data-name="Path 551" d="M924.147,1047.47h-7.579a.779.779,0,0,0-.778.778h9.134A.777.777,0,0,0,924.147,1047.47Z" transform="translate(-915.79 -1047.47)" fill="#e2f2f1"/>
      </g>
    </g>
    <g id="Group_76" data-name="Group 76" transform="translate(3633.123 1832.427)">
      <g id="Group_60" data-name="Group 60" transform="translate(0 0)">
        <g id="Group_59" data-name="Group 59">
          <g id="Group_58" data-name="Group 58">
            <g id="Group_57" data-name="Group 57">
              <path id="Path_552" data-name="Path 552" d="M914.561,1102.282c1.757-1.549-.084-1.809-.084-1.809.858-.928.658-1.362.344-1.561a.865.865,0,0,0-.775-.063c-.807.314-3.272,1.28-4.778,1.976-1.07-.076-.729-1.88-.25-2.8.247-.477.264-1.263-.9-.47a14.109,14.109,0,0,0-2.376,2.779l-5.965-.573.889,8.22s6.809-.1,7.835-.1a13.952,13.952,0,0,0,5.5-2.08c1.883-1.639.7-1.723.7-1.723C916.5,1102.183,914.561,1102.282,914.561,1102.282Z" transform="translate(-899.78 -1097.213)" fill="#fe9f73"/>
            </g>
          </g>
        </g>
      </g>
      <g id="Group_65" data-name="Group 65" transform="translate(12.411 3.136)">
        <g id="Group_64" data-name="Group 64">
          <g id="Group_63" data-name="Group 63">
            <g id="Group_62" data-name="Group 62">
              <g id="Group_61" data-name="Group 61">
                <path id="Path_553" data-name="Path 553" d="M997.811,1123.432a.125.125,0,0,1-.124-.076.123.123,0,0,1,.067-.161,15.148,15.148,0,0,0,2.14-1.222.123.123,0,1,1,.139.2,15.062,15.062,0,0,1-2.186,1.246A.092.092,0,0,1,997.811,1123.432Z" transform="translate(-997.678 -1121.951)" fill="#f07162"/>
              </g>
            </g>
          </g>
        </g>
      </g>
      <g id="Group_70" data-name="Group 70" transform="translate(12.533 4.946)">
        <g id="Group_69" data-name="Group 69">
          <g id="Group_68" data-name="Group 68">
            <g id="Group_67" data-name="Group 67">
              <g id="Group_66" data-name="Group 66">
                <path id="Path_554" data-name="Path 554" d="M998.77,1137.453a.123.123,0,0,1-.042-.242,7.668,7.668,0,0,0,2.085-.965.123.123,0,1,1,.141.2,7.784,7.784,0,0,1-2.163,1A.109.109,0,0,1,998.77,1137.453Z" transform="translate(-998.636 -1136.224)" fill="#f07162"/>
              </g>
            </g>
          </g>
        </g>
      </g>
      <g id="Group_75" data-name="Group 75" transform="translate(12.946 6.734)">
        <g id="Group_74" data-name="Group 74">
          <g id="Group_73" data-name="Group 73">
            <g id="Group_72" data-name="Group 72">
              <g id="Group_71" data-name="Group 71">
                <path id="Path_555" data-name="Path 555" d="M1002.033,1151.526a.123.123,0,0,1-.046-.241,6.592,6.592,0,0,0,1.813-.929.123.123,0,0,1,.148.2,6.747,6.747,0,0,1-1.89.969Z" transform="translate(-1001.9 -1150.33)" fill="#f07162"/>
              </g>
            </g>
          </g>
        </g>
      </g>
    </g>
    <g id="Group_77" data-name="Group 77" transform="translate(3618.642 1819.82)">
      <path id="Path_556" data-name="Path 556" d="M785.8,1011.374l-.249-.294,2.428-2.052.927-11.258.384.032-.94,11.417Z" transform="translate(-785.55 -997.77)" fill="#21111d"/>
    </g>
    <g id="Group_78" data-name="Group 78" transform="translate(3606.789 1831.136)">
      <path id="Path_557" data-name="Path 557" d="M700.813,1101.249l-2.221-.049a6.73,6.73,0,0,1-5.806-4.488c-.819-2.222-.943-5.3-.392-9.682l.382.048c-1.126,8.933.573,12.915,5.862,13.739l2.183.046Z" transform="translate(-692.057 -1087.03)" fill="#21111d"/>
    </g>
    <g id="Group_79" data-name="Group 79" transform="translate(3636.132 1833.007)">
      <path id="Path_558" data-name="Path 558" d="M924.268,1101.79h1.2s1.275,8.2-.467,11.969h-1.49S925.248,1106.063,924.268,1101.79Z" transform="translate(-923.51 -1101.79)" fill="#e2f2f1"/>
    </g>
    <g id="Group_80" data-name="Group 80" transform="translate(3628.731 1831.772)">
      <path id="Path_559" data-name="Path 559" d="M867.03,1092.05l6,.384s1.213,3.827-.245,11.586c-.142.753-.44,2.041-.44,2.041s-6.094.486-7.051-1.493c-.6-1.244.713-6.613.713-6.613Z" transform="translate(-865.138 -1092.05)" fill="#ef3a4c"/>
    </g>
    <g id="Group_81" data-name="Group 81" transform="translate(3615.542 1830.98)">
      <path id="Path_560" data-name="Path 560" d="M781.646,1100.8l-20.547-.627.011-.385,20.237.617c.289-1.2,2.142-9.256.7-13.247l-15.246-.976.024-.384,15.493.993.044.115c1.684,4.362-.581,13.364-.677,13.745Z" transform="translate(-761.1 -1085.8)" fill="#21111d"/>
    </g>
    <g id="Group_82" data-name="Group 82" transform="translate(3646.07 1804.583)">
      <path id="Path_561" data-name="Path 561" d="M1017.622,893.475l-.32-3.178-12.653-11.48a4.843,4.843,0,0,0-2.748-.852v-.385h0a5.145,5.145,0,0,1,3.007.952l12.764,11.578.333,3.325Z" transform="translate(-1001.9 -877.58)" fill="#21111d"/>
    </g>
    <g id="Group_83" data-name="Group 83" transform="translate(3661.515 1804.771)">
      <path id="Path_562" data-name="Path 562" d="M1124.014,891.635l-.284-.26,11.225-12.3.1.016a13.178,13.178,0,0,1,8.985,7.549l-.35.161a12.853,12.853,0,0,0-8.6-7.31Z" transform="translate(-1123.73 -879.07)" fill="#21111d"/>
    </g>
    <g id="Group_84" data-name="Group 84" transform="translate(3627.044 1804.012)">
      <path id="Path_563" data-name="Path 563" d="M865.471,873.4c-3.683-.2-7.234-.264-7.234-.264s-2.951-.067-6.406-.052c0,.02,0,.041,0,.061a6.823,6.823,0,0,0,13.641.255Z" transform="translate(-851.83 -873.082)" fill="#e2f2f1"/>
    </g>
    <g id="Group_85" data-name="Group 85" transform="translate(3636.282 1821.686)">
      <path id="Path_564" data-name="Path 564" d="M925.037,1050.307H924.7l0-.385c4.811.051,13.388-.96,14.706-1.118l-.477-36.307.385-.005.482,36.652-.171.022C939.533,1049.175,930.315,1050.307,925.037,1050.307Z" transform="translate(-924.7 -1012.49)" fill="#21111d"/>
    </g>
    <g id="Group_86" data-name="Group 86" transform="translate(3625.837 1805.887)">
      <path id="Path_565" data-name="Path 565" d="M846.271,893.239a9.105,9.105,0,0,1-3.96-5.265l.37-.1a8.72,8.72,0,0,0,3.794,5.043Z" transform="translate(-842.31 -887.87)" fill="#21111d"/>
    </g>
    <g id="Group_125" data-name="Group 125" transform="translate(3628.205 1789.623)">
      <g id="Group_87" data-name="Group 87" transform="translate(2.004 0)">
        <path id="Path_566" data-name="Path 566" d="M877.857,760.205a8.156,8.156,0,0,1,5.132-.327,3.469,3.469,0,0,1,2.325,3.286v1.445l-7.438-3.177s-1.177.557-1.083.388S877.857,760.205,877.857,760.205Z" transform="translate(-876.788 -759.579)" fill="#fe9f73"/>
      </g>
      <g id="Group_121" data-name="Group 121" transform="translate(0 0.53)">
        <g id="Group_90" data-name="Group 90" transform="translate(2.146 0.55)">
          <g id="Group_89" data-name="Group 89">
            <g id="Group_88" data-name="Group 88">
              <path id="Path_567" data-name="Path 567" d="M886.291,770.444v6.094s.091,2.177-1.814,2.449l.356,2.9a2.267,2.267,0,0,1-1.55,2.442,5.937,5.937,0,0,1-1.8.278,3.637,3.637,0,0,1-3.538-2.449,30.213,30.213,0,0,1,.363-4.717l-.066-1.917.247-7.428Z" transform="translate(-877.908 -768.1)" fill="#fe9f73"/>
            </g>
          </g>
        </g>
        <g id="Group_93" data-name="Group 93" transform="translate(5.181 4.912)">
          <g id="Group_92" data-name="Group 92">
            <g id="Group_91" data-name="Group 91">
              <path id="Path_568" data-name="Path 568" d="M901.944,803.363a.094.094,0,0,1-.063-.025.092.092,0,0,1,0-.128c.013-.013,1.26-1.289,2.4-.37a.091.091,0,1,1-.114.142c-1.01-.814-2.11.307-2.156.355A.1.1,0,0,1,901.944,803.363Z" transform="translate(-901.854 -802.507)" fill="#21111d"/>
            </g>
          </g>
        </g>
        <g id="Group_96" data-name="Group 96" transform="translate(8.921 4.605)">
          <g id="Group_95" data-name="Group 95">
            <g id="Group_94" data-name="Group 94">
              <path id="Path_569" data-name="Path 569" d="M931.444,800.7a.088.088,0,0,1-.068-.032.09.09,0,0,1,.009-.128c.037-.032.9-.772,1.449-.3a.092.092,0,0,1,.01.128.091.091,0,0,1-.128.01c-.428-.368-1.2.3-1.212.3A.092.092,0,0,1,931.444,800.7Z" transform="translate(-931.353 -800.085)" fill="#21111d"/>
            </g>
          </g>
        </g>
        <g id="Group_99" data-name="Group 99" transform="translate(6.562 5.862)">
          <g id="Group_98" data-name="Group 98">
            <g id="Group_97" data-name="Group 97">
              <path id="Path_570" data-name="Path 570" d="M913.285,810.273a.273.273,0,1,1-.273-.273A.272.272,0,0,1,913.285,810.273Z" transform="translate(-912.74 -810)"/>
            </g>
          </g>
        </g>
        <g id="Group_102" data-name="Group 102" transform="translate(9.455 5.589)">
          <g id="Group_101" data-name="Group 101">
            <g id="Group_100" data-name="Group 100">
              <path id="Path_571" data-name="Path 571" d="M936.105,808.123a.273.273,0,1,1-.273-.273A.272.272,0,0,1,936.105,808.123Z" transform="translate(-935.56 -807.85)"/>
            </g>
          </g>
        </g>
        <g id="Group_105" data-name="Group 105">
          <g id="Group_104" data-name="Group 104">
            <g id="Group_103" data-name="Group 103">
              <path id="Path_572" data-name="Path 572" d="M864.055,763.763a2.9,2.9,0,0,0-2.889,1.905c-.584,2.016.412,3.082.432,3.683s-.388,4.654,2.457,4.351l.768-6.694-.99-2.665Z" transform="translate(-860.982 -763.761)" fill="#21111d"/>
            </g>
          </g>
        </g>
        <g id="Group_108" data-name="Group 108" transform="translate(0.915 3.73)">
          <g id="Group_107" data-name="Group 107" transform="translate(0 0)">
            <g id="Group_106" data-name="Group 106">
              <circle id="Ellipse_4" data-name="Ellipse 4" cx="1.633" cy="1.633" r="1.633" transform="translate(0 2.309) rotate(-45)" fill="#fe9f73"/>
            </g>
          </g>
        </g>
        <g id="Group_111" data-name="Group 111" transform="translate(2.433 5.228)">
          <g id="Group_110" data-name="Group 110">
            <g id="Group_109" data-name="Group 109">
              <path id="Path_573" data-name="Path 573" d="M880.842,806.811a.68.68,0,0,1-.64-.51.639.639,0,0,1,.257-.747.767.767,0,0,1,.857.03.739.739,0,0,0-.33-.4,1.024,1.024,0,0,0-.725-.047.045.045,0,1,1-.028-.086,1.093,1.093,0,0,1,.8.053.882.882,0,0,1,.417.595l.039.159-.115-.115a.709.709,0,0,0-.863-.109.555.555,0,0,0-.218.644.586.586,0,0,0,.553.445h.009a.046.046,0,0,1,.046.044.045.045,0,0,1-.044.046A.027.027,0,0,0,880.842,806.811Z" transform="translate(-880.17 -804.997)" fill="#f07162"/>
            </g>
          </g>
        </g>
        <g id="Group_114" data-name="Group 114" transform="translate(4.297 9.588)">
          <g id="Group_113" data-name="Group 113">
            <g id="Group_112" data-name="Group 112">
              <path id="Path_574" data-name="Path 574" d="M894.88,839.39s.128,3.645,4.679,3.992l-.262-2.143A4.347,4.347,0,0,1,894.88,839.39Z" transform="translate(-894.88 -839.39)" fill="#f07162"/>
            </g>
          </g>
        </g>
        <g id="Group_116" data-name="Group 116" transform="translate(3.708 3.248)">
          <g id="Group_115" data-name="Group 115">
            <path id="Path_575" data-name="Path 575" d="M897.367,794.1s.593,4.362-2.3,4.517c-4.144.222-4.546-2.144-4.792-4.08l-.042-3.995.133-1.159h0a2.068,2.068,0,0,1,.511,1.188c.086.958.3,3.538.538,3.652C891.749,794.381,896.722,793.675,897.367,794.1Z" transform="translate(-890.23 -789.38)" fill="#21111d"/>
          </g>
        </g>
        <g id="Group_119" data-name="Group 119" transform="translate(8.021 5.39)">
          <g id="Group_118" data-name="Group 118">
            <g id="Group_117" data-name="Group 117">
              <path id="Path_576" data-name="Path 576" d="M924.3,808.856a.046.046,0,0,1-.043-.032.045.045,0,0,1,.029-.057l.909-.3-.288-2.14a.045.045,0,1,1,.09-.011l.3,2.215-.981.325Z" transform="translate(-924.253 -806.276)" fill="#f07162"/>
            </g>
          </g>
        </g>
        <g id="Group_120" data-name="Group 120" transform="translate(2.478 7.33)">
          <path id="Path_577" data-name="Path 577" d="M880.53,824.653l.316-3.073.763.085v3.076Z" transform="translate(-880.53 -821.58)" fill="#fe9f73"/>
        </g>
      </g>
      <g id="Group_122" data-name="Group 122" transform="translate(1.593 0.416)">
        <path id="Path_578" data-name="Path 578" d="M875.456,762.919a4.728,4.728,0,0,0,.342,3.4c.876,2.126-2.248-.794-2.248-.794S873.766,762.414,875.456,762.919Z" transform="translate(-873.55 -762.864)" fill="#21111d"/>
      </g>
      <g id="Group_124" data-name="Group 124" transform="translate(6.959 9.283)">
        <g id="Group_123" data-name="Group 123">
          <path id="Path_579" data-name="Path 579" d="M915.929,832.949a1.462,1.462,0,0,0,1.744.493.063.063,0,0,0-.053-.114,1.318,1.318,0,0,1-1.592-.455c-.013-.015-.024-.032-.037-.048a.065.065,0,0,0-.089-.014.064.064,0,0,0-.014.089A.5.5,0,0,1,915.929,832.949Z" transform="translate(-915.876 -832.799)" fill="#f07162"/>
        </g>
      </g>
    </g>
    <g id="Group_126" data-name="Group 126" transform="translate(3682.984 1805.915)">
      <path id="Path_580" data-name="Path 580" d="M1294.4,889.591h-.017a1.592,1.592,0,0,1-1.117-.614,1.128,1.128,0,0,1-.17-.813.094.094,0,0,1,.114-.072.1.1,0,0,1,.073.114.939.939,0,0,0,.143.667,1.419,1.419,0,0,0,.988.529.1.1,0,0,1,.078.112A.093.093,0,0,1,1294.4,889.591Z" transform="translate(-1293.078 -888.089)" fill="#f07162"/>
    </g>
    <g id="Group_127" data-name="Group 127" transform="translate(3603.439 1809.687)">
      <path id="Path_581" data-name="Path 581" d="M819.334,994.456H665.63v-.385H818.95V921.487a3.329,3.329,0,0,0-3.386-3.262v-.385a3.714,3.714,0,0,1,3.77,3.646Z" transform="translate(-665.63 -917.84)" fill="#21111d"/>
    </g>
    <g id="Group_128" data-name="Group 128" transform="translate(3629.151 1788.041)">
      <path id="Path_582" data-name="Path 582" d="M871.343,752.557s6.935-.411,7.363-2.036a1.231,1.231,0,0,0-1.2-1.667s.305-2.309-1.789-1.625-5.976.595-7.068,2.536S871.343,752.557,871.343,752.557Z" transform="translate(-868.449 -747.102)" fill="#21111d"/>
    </g>
    <g id="Group_129" data-name="Group 129" transform="translate(3655.857 1854.861)">
      <path id="Path_583" data-name="Path 583" d="M1081.129,1282.022l-1.671,1.222a.577.577,0,0,0,.682.931l1.335-.976,1.174,4.006a.577.577,0,0,0,.554.415.553.553,0,0,0,.162-.024.578.578,0,0,0,.392-.716l-1.292-4.405,1.772-1.3,2.1,2.738a.577.577,0,0,0,.917-.7l-2.083-2.718,1.127-.824a.577.577,0,0,0-.681-.932l-1.147.839-3.9-5.085a.819.819,0,0,0-1.436.728Zm2.406-1.761-1.416,1.036-1.369-4.67Z" transform="translate(-1079.102 -1274.171)" fill="#f75553"/>
    </g>
    <g id="Group_131" data-name="Group 131" transform="translate(3663.509 1845.991)">
      <g id="Group_130" data-name="Group 130" transform="translate(0 0)">
        <path id="Path_584" data-name="Path 584" d="M1140.039,1209.415c.407,0,.516-.234.875-1.01l.138-.3.932,3.194c-.013.033-.024.067-.037.1a.513.513,0,0,0-.043.118c-.231.624-.474,1.222-.711,1.757a.578.578,0,0,0,.294.762.568.568,0,0,0,.233.049.575.575,0,0,0,.527-.344c.063-.142.156-.355.267-.623l1.359,4.655a.577.577,0,0,0,.554.416.607.607,0,0,0,.162-.023.577.577,0,0,0,.392-.716l-.122-.416c1.071-.55,3.7-2.078,4.454-4.161a3.268,3.268,0,0,0-.15-2.642,2.619,2.619,0,0,0-1.968-1.582,5.19,5.19,0,0,0-3.513,1.2c.565-1.935.911-4.039.188-5.058a1.223,1.223,0,0,0-1.13-.59,2.211,2.211,0,0,0-1.424,1.05.577.577,0,0,0-.922.607l.177.609c-.243.458-.478.949-.709,1.445-.094.2-.2.428-.251.526a.576.576,0,0,0,.425.969Zm6.982.379a1.51,1.51,0,0,1,1.108.951,2.124,2.124,0,0,1,.1,1.74c-.571,1.581-2.658,2.865-3.7,3.422l-1.238-4.244C1144.19,1210.846,1145.846,1209.607,1147.021,1209.794Zm-4.185-4.435a.447.447,0,0,1,.1.106c.413.582.177,2.155-.313,3.887l-.8-2.74C1142.383,1205.622,1142.686,1205.388,1142.836,1205.359Z" transform="translate(-1139.46 -1204.205)" fill="#258d8c"/>
      </g>
    </g>
    <g id="Group_132" data-name="Group 132" transform="translate(3676.758 1845.259)">
      <path id="Path_585" data-name="Path 585" d="M1248.617,1210.968a10.45,10.45,0,0,0,2.146-.245.577.577,0,1,0-.237-1.129c-2.7.565-4.408.046-5.086-1.547-1.121-2.632.772-7.1,2.109-8.015a1.967,1.967,0,0,1,1.6-.4,2.791,2.791,0,0,1,1.491,1.322.577.577,0,0,0,1.032-.518,3.928,3.928,0,0,0-2.226-1.921,3.057,3.057,0,0,0-2.548.562c-1.86,1.268-3.807,6.4-2.52,9.421C1244.89,1209.7,1246.039,1210.968,1248.617,1210.968Z" transform="translate(-1243.965 -1198.43)" fill="#397fa1"/>
    </g>
    <g id="Group_133" data-name="Group 133" transform="translate(3654.048 1866.136)">
      <path id="Path_586" data-name="Path 586" d="M1083.454,1363.214l-12.263,8.418-.5,5.005-2.523-3.55-3.093,2.22a.577.577,0,1,0,.673.937l2.151-1.543,3.635,5.114.754-7.536,11.821-8.114a.578.578,0,1,0-.654-.952Z" transform="translate(-1064.833 -1363.113)" fill="#61a3c5"/>
    </g>
    <g id="Group_134" data-name="Group 134" transform="translate(3678.043 1869.567)">
      <path id="Path_587" data-name="Path 587" d="M1265.874,1390.531a.576.576,0,0,0-.752-.317l-10.661,4.332a.577.577,0,0,0,.218,1.112.57.57,0,0,0,.217-.043l10.661-4.332A.576.576,0,0,0,1265.874,1390.531Z" transform="translate(-1254.102 -1390.172)" fill="#f75553"/>
    </g>
    <g id="Group_135" data-name="Group 135" transform="translate(3682.205 1868.434)">
      <circle id="Ellipse_5" data-name="Ellipse 5" cx="0.969" cy="0.969" r="0.969" transform="translate(0 0)" fill="#f75553"/>
    </g>
    <g id="Group_136" data-name="Group 136" transform="translate(3684.143 1874.477)">
      <path id="Path_588" data-name="Path 588" d="M1303.188,1428.9a.969.969,0,1,0,.969.969A.969.969,0,0,0,1303.188,1428.9Z" transform="translate(-1302.22 -1428.9)" fill="#f75553"/>
    </g>
    <g id="Group_137" data-name="Group 137" transform="translate(3679.867 1833.538)">
      <path id="Path_589" data-name="Path 589" d="M1268.671,1113.9a.579.579,0,0,0,.817-.015l2.92-3.031,2.92,3.031a.577.577,0,0,0,.832-.8l-2.949-3.063,2.949-3.063a.577.577,0,1,0-.832-.8l-2.92,3.031-2.92-3.031a.577.577,0,0,0-.832.8l2.949,3.063-2.949,3.063A.577.577,0,0,0,1268.671,1113.9Z" transform="translate(-1268.494 -1105.978)" fill="#fe9f73"/>
    </g>
    <circle id="Ellipse_15" data-name="Ellipse 15" cx="3.132" cy="3.132" r="3.132" transform="translate(3681.883 1736.462)" fill="#fecc86"/>
    <ellipse id="Ellipse_16" data-name="Ellipse 16" cx="1.392" cy="1.044" rx="1.392" ry="1.044" transform="translate(3690.932 1745.511)" fill="#fecc86"/>
    <circle id="Ellipse_17" data-name="Ellipse 17" cx="3.132" cy="3.132" r="3.132" transform="translate(3606.707 1775.442)" fill="#fecc86"/>
    <ellipse id="Ellipse_18" data-name="Ellipse 18" cx="3.132" cy="2.784" rx="3.132" ry="2.784" transform="translate(3581.649 1816.511)" fill="#fecc86"/>
    <ellipse id="Ellipse_19" data-name="Ellipse 19" cx="1.392" cy="1.044" rx="1.392" ry="1.044" transform="translate(3601.139 1788.668)" fill="#fecc86"/>
    <ellipse id="Ellipse_21" data-name="Ellipse 21" cx="3.132" cy="2.784" rx="3.132" ry="2.784" transform="translate(3704.158 1782.403)" fill="#fecc86"/>
    <ellipse id="Ellipse_22" data-name="Ellipse 22" cx="1.044" cy="1.392" rx="1.044" ry="1.392" transform="translate(3695.109 1788.668)" fill="#fecc86"/>
    <circle id="Ellipse_23" data-name="Ellipse 23" cx="2.088" cy="2.088" r="2.088" transform="translate(3715.295 1797.021)" fill="#fecc86"/>
    <path id="Path_693" data-name="Path 693" d="M1416,983v60.092h44.752v-50.2L1451.117,983Z" transform="translate(2282.568 834.947)" fill="#fff"/>
    <path id="Path_694" data-name="Path 694" d="M1703.019,992.907,1693.44,983v9.907Z" transform="translate(2040.3 834.947)" fill="#aac9f8"/>
    <path id="Path_695" data-name="Path 695" d="M1521.031,1035.014h-19.523a.507.507,0,0,1-.507-.507h0a.507.507,0,0,1,.507-.507h19.523a.507.507,0,0,1,.507.507h0A.507.507,0,0,1,1521.031,1035.014Z" transform="translate(2208.344 790.413)" fill="#aac9f8"/>
    <path id="Path_696" data-name="Path 696" d="M1505.355,1066.014h-24.848a.507.507,0,0,1-.507-.507h0a.507.507,0,0,1,.507-.507h24.848a.507.507,0,0,1,.507.507h0A.507.507,0,0,1,1505.355,1066.014Z" transform="translate(2226.681 763.343)" fill="#aac9f8"/>
    <path id="Path_697" data-name="Path 697" d="M1480.511,1140.014h-36a.507.507,0,0,1-.507-.507h0a.507.507,0,0,1,.507-.507h36a.507.507,0,0,1,.507.507h0A.507.507,0,0,1,1480.511,1140.014Z" transform="translate(2258.117 698.724)" fill="#aac9f8"/>
    <path id="Path_698" data-name="Path 698" d="M1480.511,1175.014h-36a.507.507,0,0,1-.507-.507h0a.507.507,0,0,1,.507-.507h36a.507.507,0,0,1,.507.507h0A.507.507,0,0,1,1480.511,1175.014Z" transform="translate(2258.117 668.161)" fill="#aac9f8"/>
    <path id="Path_699" data-name="Path 699" d="M1480.511,1210.014h-36a.507.507,0,0,1-.507-.507h0a.507.507,0,0,1,.507-.507h36a.507.507,0,0,1,.507.507h0A.507.507,0,0,1,1480.511,1210.014Z" transform="translate(2258.117 637.599)" fill="#aac9f8"/>
    <path id="Path_700" data-name="Path 700" d="M1480.511,1280.014h-36a.507.507,0,0,1-.507-.507h0a.507.507,0,0,1,.507-.507h36a.507.507,0,0,1,.507.507h0A.507.507,0,0,1,1480.511,1280.014Z" transform="translate(2258.117 576.473)" fill="#aac9f8"/>
    <path id="Path_701" data-name="Path 701" d="M1480.511,1315.014h-36a.507.507,0,0,1-.507-.507h0a.507.507,0,0,1,.507-.507h36a.507.507,0,0,1,.507.507h0A.507.507,0,0,1,1480.511,1315.014Z" transform="translate(2258.117 545.91)" fill="#aac9f8"/>
    <path id="Path_702" data-name="Path 702" d="M1480.511,1405.014h-36a.507.507,0,0,1-.507-.507h0a.507.507,0,0,1,.507-.507h36a.507.507,0,0,1,.507.507h0A.507.507,0,0,1,1480.511,1405.014Z" transform="translate(2258.117 467.32)" fill="#aac9f8"/>
  </g>
</svg>
