<svg xmlns="http://www.w3.org/2000/svg" width="109.255" height="123.685" viewBox="0 0 109.255 123.685">
  <g id="Group_222" data-name="Group 222" transform="translate(-1488.268 -126.25)">
    <g id="Group_206" data-name="Group 206" transform="translate(1509.266 149.546)">
      <g id="Group_194" data-name="Group 194" transform="translate(0.251 0.25)">
        <g id="Group_191" data-name="Group 191">
          <path id="Path_605" data-name="Path 605" d="M1714.649,336.149a33.67,33.67,0,1,0-57.622,23.66h0s10.189,10.9,13.63,22.773a26.308,26.308,0,0,0,20.645,0c3.441-11.876,13.631-22.773,13.631-22.773h0A33.555,33.555,0,0,0,1714.649,336.149Z" transform="translate(-1647.31 -302.48)" fill="#fecc86"/>
        </g>
        <g id="Group_192" data-name="Group 192" transform="translate(28.428 94.655)">
          <path id="Path_606" data-name="Path 606" d="M1865.313,1016.174h0a5.234,5.234,0,0,1-5.234-5.233h10.467A5.233,5.233,0,0,1,1865.313,1016.174Z" transform="translate(-1860.08 -1010.94)" fill="#4cb7d8"/>
        </g>
        <g id="Group_193" data-name="Group 193" transform="translate(22.438 77.42)">
          <path id="Path_607" data-name="Path 607" d="M1827.853,900.608h-2.759a9.845,9.845,0,0,1-9.844-9.844V881.94H1837.7v8.823A9.846,9.846,0,0,1,1827.853,900.608Z" transform="translate(-1815.25 -881.94)" fill="#4cb7d8"/>
        </g>
        <path id="Path_608" data-name="Path 608" d="M1802.476,433.679a33.515,33.515,0,0,0-5.62-18.629c-9.848,24.263-25.554,40.583-48.176,46.912a63.5,63.5,0,0,1,8.909,15.466h22.432c4.036-10.785,12.737-20.09,12.737-20.09h0A33.554,33.554,0,0,0,1802.476,433.679Z" transform="translate(-1735.136 -400.01)" fill="#fecc86" opacity="0.3"/>
      </g>
      <g id="Group_195" data-name="Group 195" transform="translate(20.348 26.911)">
        <path id="Path_609" data-name="Path 609" d="M1816.8,552.916l-.963-.263c.032-.115,3.172-11.66,5.349-23.485,3.778-20.518,1.606-24.869-.025-25.638-1.667-.784-2.979-.644-3.9.418q-.1.116-.193.245a6.232,6.232,0,0,1,3.058,4.384c.373,2.382-.692,4.76-2.375,5.3a1.571,1.571,0,0,1-1.869-.828c-1.077-1.627-1.413-5.7-.207-8.413a11.086,11.086,0,0,0-4.181-.725h-.971a11.084,11.084,0,0,0-4.18.725c1.205,2.714.87,6.785-.207,8.413a1.57,1.57,0,0,1-1.869.828c-1.684-.541-2.749-2.919-2.376-5.3a6.232,6.232,0,0,1,3.058-4.384c-.062-.086-.126-.166-.192-.243-.919-1.062-2.231-1.2-3.9-.418-1.632.768-3.8,5.12-.026,25.638,2.178,11.826,5.318,23.37,5.35,23.485l-.963.263c-.032-.116-3.181-11.7-5.367-23.563-3.017-16.38-2.827-25.123.581-26.728,2.646-1.244,4.222-.323,5.08.669a4.722,4.722,0,0,1,.34.444,11.861,11.861,0,0,1,4.672-.827h.971a11.865,11.865,0,0,1,4.673.827,4.411,4.411,0,0,1,.339-.444c.858-.991,2.436-1.913,5.08-.669,3.408,1.6,3.6,10.346.582,26.728C1819.982,541.22,1816.831,552.8,1816.8,552.916Zm-11.357-47.841a5.042,5.042,0,0,0-2.568,3.654c-.326,2.079.613,3.848,1.694,4.2.1.032.369.119.731-.427C1806.223,511.1,1806.466,507.421,1805.444,505.075Zm11.128,0c-1.022,2.346-.779,6.027.143,7.421.362.548.629.461.731.428,1.081-.347,2.02-2.116,1.694-4.2A5.041,5.041,0,0,0,1816.572,505.075Z" transform="translate(-1797.727 -502.026)" fill="#f99247"/>
      </g>
      <g id="Group_196" data-name="Group 196" transform="translate(0)">
        <path id="Path_610" data-name="Path 610" d="M1667.955,378.515c-.268-.768-.389-1.049-.655-1.665l-.144-.337c-4.2-9.817-11.864-18.07-11.942-18.153l-.024-.025a33.92,33.92,0,1,1,52.557-42.363l-.418.274a33.421,33.421,0,1,0-51.754,41.77l.326.33-.024.005c1.466,1.639,7.975,9.182,11.737,17.969l.144.335c.27.627.393.913.668,1.7Z" transform="translate(-1645.43 -300.61)" fill="#21111d"/>
      </g>
      <g id="Group_197" data-name="Group 197" transform="translate(9.927 6.75)">
        <path id="Path_611" data-name="Path 611" d="M1720.21,362.755l-.48-.139c.024-.083,2.513-8.37,10.889-11.486l.174.468C1722.659,354.624,1720.234,362.674,1720.21,362.755Z" transform="translate(-1719.73 -351.13)" fill="#21111d"/>
      </g>
      <g id="Group_198" data-name="Group 198" transform="translate(11.47 9.747)">
        <path id="Path_612" data-name="Path 612" d="M1731.76,385.185l-.48-.139c.024-.083,2.513-8.37,10.889-11.486l.174.468C1734.209,377.052,1731.784,385.1,1731.76,385.185Z" transform="translate(-1731.28 -373.56)" fill="#21111d"/>
      </g>
      <g id="Group_199" data-name="Group 199" transform="translate(22.438 77.42)">
        <path id="Path_613" data-name="Path 613" d="M1826.068,899.237h-2.448a10.263,10.263,0,0,1-10.25-10.25V880.07h22.7v.5h-22.2v8.418a9.762,9.762,0,0,0,9.751,9.751h2.448a9.7,9.7,0,0,0,6.838-2.8l.35.357A10.2,10.2,0,0,1,1826.068,899.237Z" transform="translate(-1813.37 -880.07)" fill="#21111d"/>
      </g>
      <g id="Group_200" data-name="Group 200" transform="translate(28.484 95.554)">
        <path id="Path_614" data-name="Path 614" d="M1864.194,1020.635c-4.865,0-5.568-4.719-5.574-4.767l.494-.068a5.028,5.028,0,0,0,5.241,4.334l.011.5Z" transform="translate(-1858.62 -1015.8)" fill="#21111d"/>
      </g>
      <g id="Group_201" data-name="Group 201" transform="translate(56.711 43.509)">
        <path id="Path_615" data-name="Path 615" d="M2070.188,635.518l-.3-.4a14.231,14.231,0,0,0,5.149-8.857l.5.059A14.755,14.755,0,0,1,2070.188,635.518Z" transform="translate(-2069.89 -626.26)" fill="#21111d"/>
      </g>
      <g id="Group_202" data-name="Group 202" transform="translate(55.727 43.51)">
        <path id="Path_616" data-name="Path 616" d="M2062.828,633.128l-.3-.4a10.385,10.385,0,0,0,3.754-6.457l.5.059A10.692,10.692,0,0,1,2062.828,633.128Z" transform="translate(-2062.53 -626.27)" fill="#21111d"/>
      </g>
      <g id="Group_203" data-name="Group 203" transform="translate(21.652 79.175)">
        <path id="Path_617" data-name="Path 617" d="M1807.5,896.192l-.005-.5c.191,0,19.118-.247,25.113-2.482l.175.468C1826.7,895.944,1808.277,896.183,1807.5,896.192Z" transform="translate(-1807.49 -893.21)" fill="#21111d"/>
      </g>
      <g id="Group_204" data-name="Group 204" transform="translate(21.651 83.408)">
        <path id="Path_618" data-name="Path 618" d="M1807.49,927.857l-.009-.5c.207,0,20.748-.411,24.586-2.468l.236.44C1828.358,927.443,1808.339,927.841,1807.49,927.857Z" transform="translate(-1807.48 -924.89)" fill="#21111d"/>
      </g>
      <g id="Group_205" data-name="Group 205" transform="translate(22.686 87.458)">
        <path id="Path_619" data-name="Path 619" d="M1815.234,958.447l0-.5c.186,0,18.617-.2,23.555-2.747l.23.444C1833.971,958.249,1816,958.44,1815.234,958.447Z" transform="translate(-1815.23 -955.2)" fill="#21111d"/>
      </g>
    </g>
    <g id="Group_208" data-name="Group 208" transform="translate(1488.268 175.653)">
      <g id="Group_207" data-name="Group 207" transform="translate(0 0)">
        <path id="Path_620" data-name="Path 620" d="M1500.933,498.523l-.064,0-11.915-1.014a.749.749,0,0,1,.127-1.492L1501,497.028a.749.749,0,0,1-.063,1.5Z" transform="translate(-1488.269 -496.011)" fill="#fecc86"/>
      </g>
    </g>
    <g id="Group_210" data-name="Group 210" transform="translate(1496.479 150.931)">
      <g id="Group_209" data-name="Group 209">
        <path id="Path_621" data-name="Path 621" d="M1560.336,319.232a.748.748,0,0,1-.422-.131l-9.87-6.753a.749.749,0,0,1,.846-1.237l9.87,6.752a.75.75,0,0,1-.424,1.368Z" transform="translate(-1549.718 -310.98)" fill="#fecc86"/>
      </g>
    </g>
    <g id="Group_212" data-name="Group 212" transform="translate(1519.682 132.988)">
      <g id="Group_211" data-name="Group 211" transform="translate(0 0)">
        <path id="Path_622" data-name="Path 622" d="M1728.637,189.262a.751.751,0,0,1-.695-.468l-4.5-11.079a.75.75,0,0,1,1.39-.565l4.5,11.079a.75.75,0,0,1-.411.977A.764.764,0,0,1,1728.637,189.262Z" transform="translate(-1723.385 -176.684)" fill="#fecc86"/>
      </g>
    </g>
    <g id="Group_214" data-name="Group 214" transform="translate(1584.093 178.036)">
      <g id="Group_213" data-name="Group 213">
        <path id="Path_623" data-name="Path 623" d="M2206.227,516.136a.75.75,0,0,1-.048-1.5l11.933-.788a.75.75,0,0,1,.1,1.5l-11.932.788Z" transform="translate(-2205.479 -513.848)" fill="#fecc86"/>
      </g>
    </g>
    <g id="Group_216" data-name="Group 216" transform="translate(1578.289 153.165)">
      <g id="Group_215" data-name="Group 215">
        <path id="Path_624" data-name="Path 624" d="M2162.789,335.762a.749.749,0,0,1-.412-1.376l10-6.564a.75.75,0,1,1,.823,1.253l-10,6.564A.748.748,0,0,1,2162.789,335.762Z" transform="translate(-2162.039 -327.699)" fill="#fecc86"/>
      </g>
    </g>
    <g id="Group_218" data-name="Group 218" transform="translate(1563.021 133.032)">
      <g id="Group_217" data-name="Group 217" transform="translate(0 0)">
        <path id="Path_625" data-name="Path 625" d="M2048.516,189.5a.752.752,0,0,1-.689-1.045l4.71-10.992a.749.749,0,1,1,1.377.589l-4.71,10.992A.748.748,0,0,1,2048.516,189.5Z" transform="translate(-2047.766 -177.01)" fill="#fecc86"/>
      </g>
    </g>
    <g id="Group_220" data-name="Group 220" transform="translate(1543.814 126.25)">
      <g id="Group_219" data-name="Group 219">
        <path id="Path_626" data-name="Path 626" d="M1904.759,139.7h-.012a.749.749,0,0,1-.738-.76l.184-11.956a.75.75,0,0,1,.75-.738h.012a.749.749,0,0,1,.738.76l-.184,11.956A.75.75,0,0,1,1904.759,139.7Z" transform="translate(-1904.009 -126.25)" fill="#fecc86"/>
      </g>
    </g>
    <g id="Group_221" data-name="Group 221" transform="translate(1549.788 154.975)" opacity="0.5">
      <ellipse id="Ellipse_10" data-name="Ellipse 10" cx="3.94" cy="8.25" rx="3.94" ry="8.25" transform="translate(0 6.624) rotate(-57.201)" fill="#f3fffe"/>
    </g>
  </g>
</svg>
