<svg xmlns="http://www.w3.org/2000/svg" width="147.187" height="102.572" viewBox="0 0 147.187 102.572">
  <g id="Group_180" data-name="Group 180" transform="translate(-1297.92 792.802) rotate(-90)">
    <g id="Group_162" data-name="Group 162" transform="translate(690.23 1297.92)">
      <path id="Path_597" data-name="Path 597" d="M690.23,1297.92,690.309,1445l102.493.106Zm14.285,55.728,51.723,71.814H704.515Z" transform="translate(-690.23 -1297.92)" fill="#fecc86"/>
    </g>
    <g id="Group_163" data-name="Group 163" transform="translate(693.417 1311.856)">
      <rect id="Rectangle_1393" data-name="Rectangle 1393" width="1.317" height="7.979" transform="matrix(0.571, 0.821, -0.821, 0.571, 6.549, 0)" fill="#f99247"/>
    </g>
    <g id="Group_164" data-name="Group 164" transform="translate(704.038 1327.046)">
      <rect id="Rectangle_1394" data-name="Rectangle 1394" width="1.317" height="7.881" transform="matrix(0.571, 0.821, -0.821, 0.571, 6.47, 0)" fill="#f99247"/>
    </g>
    <g id="Group_165" data-name="Group 165" transform="translate(702.204 1319.774)">
      <rect id="Rectangle_1395" data-name="Rectangle 1395" width="1.317" height="3.942" transform="matrix(0.571, 0.821, -0.821, 0.571, 3.236, 0)" fill="#f99247"/>
    </g>
    <g id="Group_166" data-name="Group 166" transform="translate(714.808 1342.516)">
      <rect id="Rectangle_1396" data-name="Rectangle 1396" width="1.317" height="7.895" transform="matrix(0.571, 0.821, -0.821, 0.571, 6.481, 0)" fill="#f99247"/>
    </g>
    <g id="Group_167" data-name="Group 167" transform="translate(712.976 1335.247)">
      <rect id="Rectangle_1397" data-name="Rectangle 1397" width="1.317" height="3.956" transform="matrix(0.571, 0.821, -0.821, 0.571, 3.247, 0)" fill="#f99247"/>
    </g>
    <g id="Group_168" data-name="Group 168" transform="translate(725.578 1357.991)">
      <rect id="Rectangle_1398" data-name="Rectangle 1398" width="1.317" height="7.908" transform="matrix(0.571, 0.821, -0.821, 0.571, 6.492, 0)" fill="#f99247"/>
    </g>
    <g id="Group_169" data-name="Group 169" transform="translate(723.744 1350.719)">
      <rect id="Rectangle_1399" data-name="Rectangle 1399" width="1.317" height="3.969" transform="matrix(0.571, 0.821, -0.821, 0.571, 3.258, 0)" fill="#f99247"/>
    </g>
    <g id="Group_170" data-name="Group 170" transform="translate(736.347 1373.463)">
      <rect id="Rectangle_1400" data-name="Rectangle 1400" width="1.317" height="7.922" transform="matrix(0.571, 0.821, -0.821, 0.571, 6.503, 0)" fill="#f99247"/>
    </g>
    <g id="Group_171" data-name="Group 171" transform="translate(734.514 1366.19)">
      <rect id="Rectangle_1401" data-name="Rectangle 1401" width="1.317" height="3.991" transform="matrix(0.571, 0.821, -0.821, 0.571, 3.276, 0)" fill="#f99247"/>
    </g>
    <g id="Group_172" data-name="Group 172" transform="translate(747.12 1388.936)">
      <rect id="Rectangle_1402" data-name="Rectangle 1402" width="1.317" height="7.936" transform="matrix(0.571, 0.821, -0.821, 0.571, 6.514, 0)" fill="#f99247"/>
    </g>
    <g id="Group_173" data-name="Group 173" transform="translate(745.285 1381.669)">
      <rect id="Rectangle_1403" data-name="Rectangle 1403" width="1.317" height="3.991" transform="matrix(0.571, 0.821, -0.821, 0.571, 3.276, 0)" fill="#f99247"/>
    </g>
    <g id="Group_174" data-name="Group 174" transform="translate(757.93 1404.38)">
      <rect id="Rectangle_1404" data-name="Rectangle 1404" width="1.317" height="7.949" transform="translate(6.525 0) rotate(55.17)" fill="#f99247"/>
    </g>
    <g id="Group_175" data-name="Group 175" transform="translate(756.056 1397.14)">
      <rect id="Rectangle_1405" data-name="Rectangle 1405" width="1.317" height="4.01" transform="matrix(0.571, 0.821, -0.821, 0.571, 3.292, 0)" fill="#f99247"/>
    </g>
    <g id="Group_176" data-name="Group 176" transform="translate(768.702 1419.854)">
      <rect id="Rectangle_1406" data-name="Rectangle 1406" width="1.317" height="7.963" transform="translate(6.536 0) rotate(55.17)" fill="#f99247"/>
    </g>
    <g id="Group_177" data-name="Group 177" transform="translate(766.869 1412.581)">
      <rect id="Rectangle_1407" data-name="Rectangle 1407" width="1.317" height="4.024" transform="translate(3.303 0) rotate(55.17)" fill="#f99247"/>
    </g>
    <g id="Group_178" data-name="Group 178" transform="translate(779.475 1435.323)">
      <rect id="Rectangle_1408" data-name="Rectangle 1408" width="1.317" height="7.979" transform="translate(6.549 0) rotate(55.17)" fill="#f99247"/>
    </g>
    <g id="Group_179" data-name="Group 179" transform="translate(777.641 1428.055)">
      <rect id="Rectangle_1409" data-name="Rectangle 1409" width="1.317" height="4.037" transform="translate(3.314 0) rotate(55.17)" fill="#f99247"/>
    </g>
  </g>
</svg>
